<svg xmlns="http://www.w3.org/2000/svg" width="18px" height="18px" viewBox="0 0 94 94" version="1.1">
    <g transform="matrix(1,0,0,1,-3.49875,-3.49875)" fill="#fff">
        <path d="M91.368,95C90.439,95 89.509,94.645 88.8,93.936L6.063,11.2C4.644,9.783 4.644,7.481 6.063,6.064C7.482,4.645 9.781,4.645 11.2,6.064L93.937,88.8C95.356,90.217 95.356,92.519 93.937,93.936C93.227,94.646 92.297,95 91.368,95Z"/>
        <path d="M8.632,95C7.703,95 6.773,94.645 6.064,93.936C4.645,92.519 4.645,90.217 6.064,88.8L88.8,6.063C90.219,4.644 92.518,4.644 93.937,6.063C95.356,7.48 95.356,9.782 93.937,11.199L11.2,93.936C10.491,94.646 9.561,95 8.632,95Z"/>
    </g>
</svg>